<svg width="1444" height="510" viewBox="0 0 1444 510" fill="none" xmlns="http://www.w3.org/2000/svg">
<rect x="0.5" y="0.5" width="1443" height="509" rx="4.5" stroke="#9747FF" stroke-dasharray="10 5"/>
<g filter="url(#filter0_d_378_17470)">
<rect x="20" y="20" width="125" height="187" rx="2" fill="#12161A"/>
<rect x="20.25" y="20.25" width="124.5" height="186.5" rx="1.75" stroke="white" stroke-opacity="0.25" stroke-width="0.5"/>
</g>
<path d="M82.4128 223V214.823L80.3328 216.318V215.265L82.4908 213.705H83.5438V223H82.4128Z" fill="white"/>
<g filter="url(#filter1_d_378_17470)">
<rect x="156" y="20" width="125" height="187" rx="2" fill="#12161A"/>
<rect x="156.25" y="20.25" width="124.5" height="186.5" rx="1.75" stroke="white" stroke-opacity="0.25" stroke-width="0.5"/>
</g>
<path d="M215.148 223V222.74L218.84 218.853C219.685 217.956 220.179 217.111 220.179 216.162C220.179 215.122 219.568 214.498 218.515 214.498C217.436 214.498 216.734 215.109 216.552 216.565H215.499C215.642 214.745 216.747 213.588 218.515 213.588C220.231 213.588 221.323 214.602 221.323 216.201C221.323 217.345 220.595 218.463 219.451 219.581L216.89 222.077H221.375V223H215.148Z" fill="white"/>
<g filter="url(#filter2_d_378_17470)">
<rect x="292" y="20" width="125" height="187" rx="2" fill="#12161A"/>
<rect x="292.25" y="20.25" width="124.5" height="186.5" rx="1.75" stroke="white" stroke-opacity="0.25" stroke-width="0.5"/>
</g>
<path d="M354.347 223.117C352.371 223.117 351.162 221.882 351.097 220.257H352.137C352.241 221.362 352.904 222.207 354.373 222.207C355.829 222.207 356.492 221.505 356.492 220.413C356.492 219.217 355.842 218.606 354.529 218.606H353.827V217.657H354.477C355.686 217.657 356.219 217.085 356.219 216.071C356.219 215.187 355.66 214.511 354.529 214.511C353.372 214.511 352.592 215.213 352.475 216.266H351.487C351.552 214.797 352.761 213.588 354.529 213.588C356.297 213.588 357.324 214.758 357.324 216.045C357.324 217.098 356.7 217.722 355.855 218.073C356.947 218.359 357.649 219.126 357.649 220.413C357.649 222.103 356.271 223.117 354.347 223.117Z" fill="white"/>
<g filter="url(#filter3_d_378_17470)">
<rect x="428" y="20" width="125" height="187" rx="2" fill="#12161A"/>
<rect x="428.25" y="20.25" width="124.5" height="186.5" rx="1.75" stroke="white" stroke-opacity="0.25" stroke-width="0.5"/>
</g>
<path d="M491.649 223V221.05H486.995V220.686L491.246 213.705H492.754V220.127H494.041V221.05H492.754V223H491.649ZM488.425 220.127H491.649V214.563L488.425 220.127Z" fill="white"/>
<g filter="url(#filter4_d_378_17470)">
<rect x="564" y="20" width="125" height="187" rx="2" fill="#12161A"/>
<rect x="564.25" y="20.25" width="124.5" height="186.5" rx="1.75" stroke="white" stroke-opacity="0.25" stroke-width="0.5"/>
</g>
<path d="M626.338 223.117C624.336 223.117 623.374 222.012 623.244 220.491H624.323C624.505 221.505 624.908 222.207 626.325 222.207C627.586 222.207 628.366 221.362 628.366 219.958C628.366 218.645 627.599 217.787 626.416 217.787C625.337 217.787 624.713 218.125 624.219 218.684H623.803V213.705H629.029V214.68H624.739V217.514C625.116 217.163 625.753 216.877 626.637 216.877C628.301 216.877 629.523 218.06 629.523 219.958C629.523 221.921 628.106 223.117 626.338 223.117Z" fill="white"/>
<g filter="url(#filter5_d_378_17470)">
<rect x="20" y="235" width="125" height="187" rx="2" fill="#12161A"/>
<rect x="20.25" y="235.25" width="124.5" height="186.5" rx="1.75" stroke="white" stroke-opacity="0.25" stroke-width="0.5"/>
</g>
<path d="M82.5966 438.117C80.0616 438.117 79.2556 436.219 79.2556 433.892V433.671C79.2556 430.33 80.7636 428.588 82.8956 428.588C84.3386 428.588 85.3656 429.342 85.6126 430.837H84.5336C84.3256 429.979 83.8576 429.511 82.8176 429.511C81.4136 429.511 80.4256 430.772 80.3736 433.229C80.8156 432.475 81.6866 431.968 82.7656 431.968C84.6116 431.968 85.8076 433.307 85.8076 435.01C85.8076 436.869 84.5596 438.117 82.5966 438.117ZM82.5966 437.233C83.8186 437.233 84.6506 436.375 84.6506 435.062C84.6506 433.723 83.8446 432.852 82.5836 432.852C81.3356 432.852 80.4516 433.697 80.4516 434.906C80.4516 436.427 81.3486 437.233 82.5966 437.233Z" fill="white"/>
<g filter="url(#filter6_d_378_17470)">
<rect x="156" y="235" width="125" height="187" rx="2" fill="#12161A"/>
<rect x="156.25" y="235.25" width="124.5" height="186.5" rx="1.75" stroke="white" stroke-opacity="0.25" stroke-width="0.5"/>
</g>
<path d="M216.983 438L220.22 429.615H215.501V428.705H221.624V428.861L218.14 438H216.983Z" fill="white"/>
<g filter="url(#filter7_d_378_17470)">
<rect x="292" y="235" width="125" height="187" rx="2" fill="#12161A"/>
<rect x="292.25" y="235.25" width="124.5" height="186.5" rx="1.75" stroke="white" stroke-opacity="0.25" stroke-width="0.5"/>
</g>
<path d="M354.504 438.117C352.983 438.117 351.293 437.207 351.293 435.361C351.293 434.113 352.06 433.307 353.048 432.956C352.164 432.618 351.644 431.916 351.644 431.006C351.644 429.498 353.074 428.588 354.504 428.588C355.947 428.588 357.351 429.524 357.351 430.98C357.351 431.916 356.779 432.566 355.921 432.943C357 433.333 357.702 434.139 357.702 435.335C357.702 437.194 356.077 438.117 354.504 438.117ZM354.504 437.194C355.648 437.194 356.545 436.531 356.545 435.296C356.545 434.074 355.635 433.45 354.53 433.45C353.425 433.45 352.45 434.087 352.45 435.322C352.45 436.544 353.425 437.194 354.504 437.194ZM354.543 432.553C355.531 432.553 356.207 431.981 356.207 430.993C356.207 430.096 355.466 429.472 354.504 429.472C353.542 429.472 352.788 430.057 352.788 431.019C352.788 431.994 353.594 432.553 354.543 432.553Z" fill="white"/>
<g filter="url(#filter8_d_378_17470)">
<rect x="428" y="235" width="125" height="187" rx="2" fill="#12161A"/>
<rect x="428.25" y="235.25" width="124.5" height="186.5" rx="1.75" stroke="white" stroke-opacity="0.25" stroke-width="0.5"/>
</g>
<path d="M490.239 438.104C488.523 438.104 487.496 437.207 487.249 435.712H488.341C488.549 436.622 489.069 437.181 490.265 437.181C491.747 437.181 492.618 435.959 492.644 433.489C492.202 434.243 491.305 434.724 490.239 434.724C488.432 434.724 487.184 433.437 487.184 431.682C487.184 429.823 488.432 428.575 490.395 428.575C492.592 428.575 493.736 430.057 493.736 432.735V433.32C493.736 436.401 492.462 438.104 490.239 438.104ZM490.408 433.84C491.656 433.84 492.54 433.034 492.54 431.825C492.54 430.304 491.643 429.459 490.395 429.459C489.173 429.459 488.341 430.317 488.341 431.63C488.341 432.969 489.147 433.84 490.408 433.84Z" fill="white"/>
<g filter="url(#filter9_d_378_17470)">
<rect x="564" y="235" width="125" height="187" rx="2" fill="#12161A"/>
<rect x="564.25" y="235.25" width="124.5" height="186.5" rx="1.75" stroke="white" stroke-opacity="0.25" stroke-width="0.5"/>
</g>
<path d="M621.988 438V429.823L619.908 431.318V430.265L622.066 428.705H623.119V438H621.988ZM629.144 437.181C630.769 437.181 631.601 435.933 631.601 433.58V433.06C631.601 430.902 630.691 429.498 629.118 429.498C627.545 429.498 626.609 430.798 626.609 433.086V433.606C626.609 435.959 627.597 437.181 629.144 437.181ZM629.144 438.117C626.921 438.117 625.452 436.323 625.452 433.619V433.099C625.452 430.356 626.843 428.588 629.118 428.588C631.406 428.588 632.745 430.421 632.745 433.073V433.593C632.745 436.297 631.432 438.117 629.144 438.117Z" fill="white"/>
<g filter="url(#filter10_d_378_17470)">
<rect x="754" y="38" width="125" height="187" rx="2" fill="#12161A"/>
<rect x="754.25" y="38.25" width="124.5" height="186.5" rx="1.75" stroke="white" stroke-opacity="0.25" stroke-width="0.5"/>
</g>
<g filter="url(#filter11_d_378_17470)">
<rect x="890" y="38" width="125" height="187" rx="2" fill="#12161A"/>
<rect x="890.25" y="38.25" width="124.5" height="186.5" rx="1.75" stroke="white" stroke-opacity="0.25" stroke-width="0.5"/>
</g>
<g filter="url(#filter12_d_378_17470)">
<rect x="1026" y="38" width="125" height="187" rx="2" fill="#12161A"/>
<rect x="1026.25" y="38.25" width="124.5" height="186.5" rx="1.75" stroke="white" stroke-opacity="0.25" stroke-width="0.5"/>
</g>
<g filter="url(#filter13_d_378_17470)">
<rect x="1162" y="38" width="125" height="187" rx="2" fill="#12161A"/>
<rect x="1162.25" y="38.25" width="124.5" height="186.5" rx="1.75" stroke="white" stroke-opacity="0.25" stroke-width="0.5"/>
</g>
<g filter="url(#filter14_d_378_17470)">
<rect x="1298" y="38" width="125" height="187" rx="2" fill="#12161A"/>
<rect x="1298.25" y="38.25" width="124.5" height="186.5" rx="1.75" stroke="white" stroke-opacity="0.25" stroke-width="0.5"/>
</g>
<g filter="url(#filter15_d_378_17470)">
<rect x="754" y="235" width="125" height="187" rx="2" fill="#12161A"/>
<rect x="754.25" y="235.25" width="124.5" height="186.5" rx="1.75" stroke="white" stroke-opacity="0.25" stroke-width="0.5"/>
</g>
<g filter="url(#filter16_d_378_17470)">
<rect x="890" y="235" width="125" height="187" rx="2" fill="#12161A"/>
<rect x="890.25" y="235.25" width="124.5" height="186.5" rx="1.75" stroke="white" stroke-opacity="0.25" stroke-width="0.5"/>
</g>
<g filter="url(#filter17_d_378_17470)">
<rect x="1026" y="235" width="125" height="187" rx="2" fill="#12161A"/>
<rect x="1026.25" y="235.25" width="124.5" height="186.5" rx="1.75" stroke="white" stroke-opacity="0.25" stroke-width="0.5"/>
</g>
<g filter="url(#filter18_d_378_17470)">
<rect x="1162" y="235" width="125" height="187" rx="2" fill="#12161A"/>
<rect x="1162.25" y="235.25" width="124.5" height="186.5" rx="1.75" stroke="white" stroke-opacity="0.25" stroke-width="0.5"/>
</g>
<g filter="url(#filter19_d_378_17470)">
<rect x="1298" y="235" width="125" height="187" rx="2" fill="#12161A"/>
<rect x="1298.25" y="235.25" width="124.5" height="186.5" rx="1.75" stroke="white" stroke-opacity="0.25" stroke-width="0.5"/>
</g>
<defs>
<filter id="filter0_d_378_17470" x="15" y="15" width="135" height="197" filterUnits="userSpaceOnUse" color-interpolation-filters="sRGB">
<feFlood flood-opacity="0" result="BackgroundImageFix"/>
<feColorMatrix in="SourceAlpha" type="matrix" values="0 0 0 0 0 0 0 0 0 0 0 0 0 0 0 0 0 0 127 0" result="hardAlpha"/>
<feOffset/>
<feGaussianBlur stdDeviation="2.5"/>
<feComposite in2="hardAlpha" operator="out"/>
<feColorMatrix type="matrix" values="0 0 0 0 0 0 0 0 0 0 0 0 0 0 0 0 0 0 0.5 0"/>
<feBlend mode="normal" in2="BackgroundImageFix" result="effect1_dropShadow_378_17470"/>
<feBlend mode="normal" in="SourceGraphic" in2="effect1_dropShadow_378_17470" result="shape"/>
</filter>
<filter id="filter1_d_378_17470" x="151" y="15" width="135" height="197" filterUnits="userSpaceOnUse" color-interpolation-filters="sRGB">
<feFlood flood-opacity="0" result="BackgroundImageFix"/>
<feColorMatrix in="SourceAlpha" type="matrix" values="0 0 0 0 0 0 0 0 0 0 0 0 0 0 0 0 0 0 127 0" result="hardAlpha"/>
<feOffset/>
<feGaussianBlur stdDeviation="2.5"/>
<feComposite in2="hardAlpha" operator="out"/>
<feColorMatrix type="matrix" values="0 0 0 0 0 0 0 0 0 0 0 0 0 0 0 0 0 0 0.5 0"/>
<feBlend mode="normal" in2="BackgroundImageFix" result="effect1_dropShadow_378_17470"/>
<feBlend mode="normal" in="SourceGraphic" in2="effect1_dropShadow_378_17470" result="shape"/>
</filter>
<filter id="filter2_d_378_17470" x="287" y="15" width="135" height="197" filterUnits="userSpaceOnUse" color-interpolation-filters="sRGB">
<feFlood flood-opacity="0" result="BackgroundImageFix"/>
<feColorMatrix in="SourceAlpha" type="matrix" values="0 0 0 0 0 0 0 0 0 0 0 0 0 0 0 0 0 0 127 0" result="hardAlpha"/>
<feOffset/>
<feGaussianBlur stdDeviation="2.5"/>
<feComposite in2="hardAlpha" operator="out"/>
<feColorMatrix type="matrix" values="0 0 0 0 0 0 0 0 0 0 0 0 0 0 0 0 0 0 0.5 0"/>
<feBlend mode="normal" in2="BackgroundImageFix" result="effect1_dropShadow_378_17470"/>
<feBlend mode="normal" in="SourceGraphic" in2="effect1_dropShadow_378_17470" result="shape"/>
</filter>
<filter id="filter3_d_378_17470" x="423" y="15" width="135" height="197" filterUnits="userSpaceOnUse" color-interpolation-filters="sRGB">
<feFlood flood-opacity="0" result="BackgroundImageFix"/>
<feColorMatrix in="SourceAlpha" type="matrix" values="0 0 0 0 0 0 0 0 0 0 0 0 0 0 0 0 0 0 127 0" result="hardAlpha"/>
<feOffset/>
<feGaussianBlur stdDeviation="2.5"/>
<feComposite in2="hardAlpha" operator="out"/>
<feColorMatrix type="matrix" values="0 0 0 0 0 0 0 0 0 0 0 0 0 0 0 0 0 0 0.5 0"/>
<feBlend mode="normal" in2="BackgroundImageFix" result="effect1_dropShadow_378_17470"/>
<feBlend mode="normal" in="SourceGraphic" in2="effect1_dropShadow_378_17470" result="shape"/>
</filter>
<filter id="filter4_d_378_17470" x="559" y="15" width="135" height="197" filterUnits="userSpaceOnUse" color-interpolation-filters="sRGB">
<feFlood flood-opacity="0" result="BackgroundImageFix"/>
<feColorMatrix in="SourceAlpha" type="matrix" values="0 0 0 0 0 0 0 0 0 0 0 0 0 0 0 0 0 0 127 0" result="hardAlpha"/>
<feOffset/>
<feGaussianBlur stdDeviation="2.5"/>
<feComposite in2="hardAlpha" operator="out"/>
<feColorMatrix type="matrix" values="0 0 0 0 0 0 0 0 0 0 0 0 0 0 0 0 0 0 0.5 0"/>
<feBlend mode="normal" in2="BackgroundImageFix" result="effect1_dropShadow_378_17470"/>
<feBlend mode="normal" in="SourceGraphic" in2="effect1_dropShadow_378_17470" result="shape"/>
</filter>
<filter id="filter5_d_378_17470" x="15" y="230" width="135" height="197" filterUnits="userSpaceOnUse" color-interpolation-filters="sRGB">
<feFlood flood-opacity="0" result="BackgroundImageFix"/>
<feColorMatrix in="SourceAlpha" type="matrix" values="0 0 0 0 0 0 0 0 0 0 0 0 0 0 0 0 0 0 127 0" result="hardAlpha"/>
<feOffset/>
<feGaussianBlur stdDeviation="2.5"/>
<feComposite in2="hardAlpha" operator="out"/>
<feColorMatrix type="matrix" values="0 0 0 0 0 0 0 0 0 0 0 0 0 0 0 0 0 0 0.5 0"/>
<feBlend mode="normal" in2="BackgroundImageFix" result="effect1_dropShadow_378_17470"/>
<feBlend mode="normal" in="SourceGraphic" in2="effect1_dropShadow_378_17470" result="shape"/>
</filter>
<filter id="filter6_d_378_17470" x="151" y="230" width="135" height="197" filterUnits="userSpaceOnUse" color-interpolation-filters="sRGB">
<feFlood flood-opacity="0" result="BackgroundImageFix"/>
<feColorMatrix in="SourceAlpha" type="matrix" values="0 0 0 0 0 0 0 0 0 0 0 0 0 0 0 0 0 0 127 0" result="hardAlpha"/>
<feOffset/>
<feGaussianBlur stdDeviation="2.5"/>
<feComposite in2="hardAlpha" operator="out"/>
<feColorMatrix type="matrix" values="0 0 0 0 0 0 0 0 0 0 0 0 0 0 0 0 0 0 0.5 0"/>
<feBlend mode="normal" in2="BackgroundImageFix" result="effect1_dropShadow_378_17470"/>
<feBlend mode="normal" in="SourceGraphic" in2="effect1_dropShadow_378_17470" result="shape"/>
</filter>
<filter id="filter7_d_378_17470" x="287" y="230" width="135" height="197" filterUnits="userSpaceOnUse" color-interpolation-filters="sRGB">
<feFlood flood-opacity="0" result="BackgroundImageFix"/>
<feColorMatrix in="SourceAlpha" type="matrix" values="0 0 0 0 0 0 0 0 0 0 0 0 0 0 0 0 0 0 127 0" result="hardAlpha"/>
<feOffset/>
<feGaussianBlur stdDeviation="2.5"/>
<feComposite in2="hardAlpha" operator="out"/>
<feColorMatrix type="matrix" values="0 0 0 0 0 0 0 0 0 0 0 0 0 0 0 0 0 0 0.5 0"/>
<feBlend mode="normal" in2="BackgroundImageFix" result="effect1_dropShadow_378_17470"/>
<feBlend mode="normal" in="SourceGraphic" in2="effect1_dropShadow_378_17470" result="shape"/>
</filter>
<filter id="filter8_d_378_17470" x="423" y="230" width="135" height="197" filterUnits="userSpaceOnUse" color-interpolation-filters="sRGB">
<feFlood flood-opacity="0" result="BackgroundImageFix"/>
<feColorMatrix in="SourceAlpha" type="matrix" values="0 0 0 0 0 0 0 0 0 0 0 0 0 0 0 0 0 0 127 0" result="hardAlpha"/>
<feOffset/>
<feGaussianBlur stdDeviation="2.5"/>
<feComposite in2="hardAlpha" operator="out"/>
<feColorMatrix type="matrix" values="0 0 0 0 0 0 0 0 0 0 0 0 0 0 0 0 0 0 0.5 0"/>
<feBlend mode="normal" in2="BackgroundImageFix" result="effect1_dropShadow_378_17470"/>
<feBlend mode="normal" in="SourceGraphic" in2="effect1_dropShadow_378_17470" result="shape"/>
</filter>
<filter id="filter9_d_378_17470" x="559" y="230" width="135" height="197" filterUnits="userSpaceOnUse" color-interpolation-filters="sRGB">
<feFlood flood-opacity="0" result="BackgroundImageFix"/>
<feColorMatrix in="SourceAlpha" type="matrix" values="0 0 0 0 0 0 0 0 0 0 0 0 0 0 0 0 0 0 127 0" result="hardAlpha"/>
<feOffset/>
<feGaussianBlur stdDeviation="2.5"/>
<feComposite in2="hardAlpha" operator="out"/>
<feColorMatrix type="matrix" values="0 0 0 0 0 0 0 0 0 0 0 0 0 0 0 0 0 0 0.5 0"/>
<feBlend mode="normal" in2="BackgroundImageFix" result="effect1_dropShadow_378_17470"/>
<feBlend mode="normal" in="SourceGraphic" in2="effect1_dropShadow_378_17470" result="shape"/>
</filter>
<filter id="filter10_d_378_17470" x="749" y="33" width="135" height="197" filterUnits="userSpaceOnUse" color-interpolation-filters="sRGB">
<feFlood flood-opacity="0" result="BackgroundImageFix"/>
<feColorMatrix in="SourceAlpha" type="matrix" values="0 0 0 0 0 0 0 0 0 0 0 0 0 0 0 0 0 0 127 0" result="hardAlpha"/>
<feOffset/>
<feGaussianBlur stdDeviation="2.5"/>
<feComposite in2="hardAlpha" operator="out"/>
<feColorMatrix type="matrix" values="0 0 0 0 0 0 0 0 0 0 0 0 0 0 0 0 0 0 0.5 0"/>
<feBlend mode="normal" in2="BackgroundImageFix" result="effect1_dropShadow_378_17470"/>
<feBlend mode="normal" in="SourceGraphic" in2="effect1_dropShadow_378_17470" result="shape"/>
</filter>
<filter id="filter11_d_378_17470" x="885" y="33" width="135" height="197" filterUnits="userSpaceOnUse" color-interpolation-filters="sRGB">
<feFlood flood-opacity="0" result="BackgroundImageFix"/>
<feColorMatrix in="SourceAlpha" type="matrix" values="0 0 0 0 0 0 0 0 0 0 0 0 0 0 0 0 0 0 127 0" result="hardAlpha"/>
<feOffset/>
<feGaussianBlur stdDeviation="2.5"/>
<feComposite in2="hardAlpha" operator="out"/>
<feColorMatrix type="matrix" values="0 0 0 0 0 0 0 0 0 0 0 0 0 0 0 0 0 0 0.5 0"/>
<feBlend mode="normal" in2="BackgroundImageFix" result="effect1_dropShadow_378_17470"/>
<feBlend mode="normal" in="SourceGraphic" in2="effect1_dropShadow_378_17470" result="shape"/>
</filter>
<filter id="filter12_d_378_17470" x="1021" y="33" width="135" height="197" filterUnits="userSpaceOnUse" color-interpolation-filters="sRGB">
<feFlood flood-opacity="0" result="BackgroundImageFix"/>
<feColorMatrix in="SourceAlpha" type="matrix" values="0 0 0 0 0 0 0 0 0 0 0 0 0 0 0 0 0 0 127 0" result="hardAlpha"/>
<feOffset/>
<feGaussianBlur stdDeviation="2.5"/>
<feComposite in2="hardAlpha" operator="out"/>
<feColorMatrix type="matrix" values="0 0 0 0 0 0 0 0 0 0 0 0 0 0 0 0 0 0 0.5 0"/>
<feBlend mode="normal" in2="BackgroundImageFix" result="effect1_dropShadow_378_17470"/>
<feBlend mode="normal" in="SourceGraphic" in2="effect1_dropShadow_378_17470" result="shape"/>
</filter>
<filter id="filter13_d_378_17470" x="1157" y="33" width="135" height="197" filterUnits="userSpaceOnUse" color-interpolation-filters="sRGB">
<feFlood flood-opacity="0" result="BackgroundImageFix"/>
<feColorMatrix in="SourceAlpha" type="matrix" values="0 0 0 0 0 0 0 0 0 0 0 0 0 0 0 0 0 0 127 0" result="hardAlpha"/>
<feOffset/>
<feGaussianBlur stdDeviation="2.5"/>
<feComposite in2="hardAlpha" operator="out"/>
<feColorMatrix type="matrix" values="0 0 0 0 0 0 0 0 0 0 0 0 0 0 0 0 0 0 0.5 0"/>
<feBlend mode="normal" in2="BackgroundImageFix" result="effect1_dropShadow_378_17470"/>
<feBlend mode="normal" in="SourceGraphic" in2="effect1_dropShadow_378_17470" result="shape"/>
</filter>
<filter id="filter14_d_378_17470" x="1293" y="33" width="135" height="197" filterUnits="userSpaceOnUse" color-interpolation-filters="sRGB">
<feFlood flood-opacity="0" result="BackgroundImageFix"/>
<feColorMatrix in="SourceAlpha" type="matrix" values="0 0 0 0 0 0 0 0 0 0 0 0 0 0 0 0 0 0 127 0" result="hardAlpha"/>
<feOffset/>
<feGaussianBlur stdDeviation="2.5"/>
<feComposite in2="hardAlpha" operator="out"/>
<feColorMatrix type="matrix" values="0 0 0 0 0 0 0 0 0 0 0 0 0 0 0 0 0 0 0.5 0"/>
<feBlend mode="normal" in2="BackgroundImageFix" result="effect1_dropShadow_378_17470"/>
<feBlend mode="normal" in="SourceGraphic" in2="effect1_dropShadow_378_17470" result="shape"/>
</filter>
<filter id="filter15_d_378_17470" x="749" y="230" width="135" height="197" filterUnits="userSpaceOnUse" color-interpolation-filters="sRGB">
<feFlood flood-opacity="0" result="BackgroundImageFix"/>
<feColorMatrix in="SourceAlpha" type="matrix" values="0 0 0 0 0 0 0 0 0 0 0 0 0 0 0 0 0 0 127 0" result="hardAlpha"/>
<feOffset/>
<feGaussianBlur stdDeviation="2.5"/>
<feComposite in2="hardAlpha" operator="out"/>
<feColorMatrix type="matrix" values="0 0 0 0 0 0 0 0 0 0 0 0 0 0 0 0 0 0 0.5 0"/>
<feBlend mode="normal" in2="BackgroundImageFix" result="effect1_dropShadow_378_17470"/>
<feBlend mode="normal" in="SourceGraphic" in2="effect1_dropShadow_378_17470" result="shape"/>
</filter>
<filter id="filter16_d_378_17470" x="885" y="230" width="135" height="197" filterUnits="userSpaceOnUse" color-interpolation-filters="sRGB">
<feFlood flood-opacity="0" result="BackgroundImageFix"/>
<feColorMatrix in="SourceAlpha" type="matrix" values="0 0 0 0 0 0 0 0 0 0 0 0 0 0 0 0 0 0 127 0" result="hardAlpha"/>
<feOffset/>
<feGaussianBlur stdDeviation="2.5"/>
<feComposite in2="hardAlpha" operator="out"/>
<feColorMatrix type="matrix" values="0 0 0 0 0 0 0 0 0 0 0 0 0 0 0 0 0 0 0.5 0"/>
<feBlend mode="normal" in2="BackgroundImageFix" result="effect1_dropShadow_378_17470"/>
<feBlend mode="normal" in="SourceGraphic" in2="effect1_dropShadow_378_17470" result="shape"/>
</filter>
<filter id="filter17_d_378_17470" x="1021" y="230" width="135" height="197" filterUnits="userSpaceOnUse" color-interpolation-filters="sRGB">
<feFlood flood-opacity="0" result="BackgroundImageFix"/>
<feColorMatrix in="SourceAlpha" type="matrix" values="0 0 0 0 0 0 0 0 0 0 0 0 0 0 0 0 0 0 127 0" result="hardAlpha"/>
<feOffset/>
<feGaussianBlur stdDeviation="2.5"/>
<feComposite in2="hardAlpha" operator="out"/>
<feColorMatrix type="matrix" values="0 0 0 0 0 0 0 0 0 0 0 0 0 0 0 0 0 0 0.5 0"/>
<feBlend mode="normal" in2="BackgroundImageFix" result="effect1_dropShadow_378_17470"/>
<feBlend mode="normal" in="SourceGraphic" in2="effect1_dropShadow_378_17470" result="shape"/>
</filter>
<filter id="filter18_d_378_17470" x="1157" y="230" width="135" height="197" filterUnits="userSpaceOnUse" color-interpolation-filters="sRGB">
<feFlood flood-opacity="0" result="BackgroundImageFix"/>
<feColorMatrix in="SourceAlpha" type="matrix" values="0 0 0 0 0 0 0 0 0 0 0 0 0 0 0 0 0 0 127 0" result="hardAlpha"/>
<feOffset/>
<feGaussianBlur stdDeviation="2.5"/>
<feComposite in2="hardAlpha" operator="out"/>
<feColorMatrix type="matrix" values="0 0 0 0 0 0 0 0 0 0 0 0 0 0 0 0 0 0 0.5 0"/>
<feBlend mode="normal" in2="BackgroundImageFix" result="effect1_dropShadow_378_17470"/>
<feBlend mode="normal" in="SourceGraphic" in2="effect1_dropShadow_378_17470" result="shape"/>
</filter>
<filter id="filter19_d_378_17470" x="1293" y="230" width="135" height="197" filterUnits="userSpaceOnUse" color-interpolation-filters="sRGB">
<feFlood flood-opacity="0" result="BackgroundImageFix"/>
<feColorMatrix in="SourceAlpha" type="matrix" values="0 0 0 0 0 0 0 0 0 0 0 0 0 0 0 0 0 0 127 0" result="hardAlpha"/>
<feOffset/>
<feGaussianBlur stdDeviation="2.5"/>
<feComposite in2="hardAlpha" operator="out"/>
<feColorMatrix type="matrix" values="0 0 0 0 0 0 0 0 0 0 0 0 0 0 0 0 0 0 0.5 0"/>
<feBlend mode="normal" in2="BackgroundImageFix" result="effect1_dropShadow_378_17470"/>
<feBlend mode="normal" in="SourceGraphic" in2="effect1_dropShadow_378_17470" result="shape"/>
</filter>
</defs>
</svg>
