<svg width="35" height="53" viewBox="0 0 35 53" fill="none" xmlns="http://www.w3.org/2000/svg">
<path d="M2 18.867L2 40.1337C2 42.1872 2 43.2125 2.37058 43.9969C2.69655 44.6868 3.2163 45.2492 3.85605 45.6007C4.58264 46 5.53429 46 7.43475 46H13.5653C15.4657 46 16.416 46 17.1426 45.6007C17.7823 45.2492 18.3038 44.6868 18.6298 43.9969C19 43.2133 19 42.1885 19 40.139L19 18.861C19 16.8115 19 15.7852 18.6298 15.0016C18.3038 14.3117 17.7823 13.7512 17.1426 13.3996C16.4153 13 15.4645 13 13.5603 13L7.44033 13C5.53615 13 4.58335 13 3.85605 13.3996C3.2163 13.7512 2.69655 14.3117 2.37058 15.0016C2 15.786 2 16.8135 2 18.867Z" stroke="white" stroke-width="2" stroke-linecap="round" stroke-linejoin="round"/>
<path d="M27.2129 8.03886L23.7095 4.53554L27.2451 1.00001M33.1015 15.3465C33.6899 13.9724 33.8826 12.4643 33.6575 10.9936C33.4325 9.52285 32.798 8.14751 31.8277 7.02582C30.8573 5.90413 29.5899 5.08065 28.1683 4.64782C26.7466 4.215 25.2288 4.19165 23.7866 4.57883" stroke="white" stroke-width="2" stroke-linecap="round" stroke-linejoin="round"/>
</svg>
