<svg width="42" height="53" viewBox="0 0 42 53" fill="none" xmlns="http://www.w3.org/2000/svg">
<path d="M6.86702 38L28.1337 38C30.1872 38 31.2125 38 31.9969 37.6294C32.6868 37.3035 33.2492 36.7837 33.6007 36.1439C34 35.4174 34 34.4657 34 32.5653L34 26.4347C34 24.5343 34 23.584 33.6007 22.8574C33.2492 22.2177 32.6868 21.6962 31.9969 21.3702C31.2133 21 30.1885 21 28.139 21L6.861 21C4.81149 21 3.7852 21 3.00163 21.3702C2.3117 21.6962 1.75118 22.2177 1.39964 22.8574C0.999999 23.5847 0.999999 24.5355 0.999999 26.4397L1 32.5597C1 34.4638 1 35.4166 1.39964 36.1439C1.75118 36.7837 2.3117 37.3035 3.00163 37.6294C3.78597 38 4.8135 38 6.86702 38Z" stroke="white" stroke-width="2" stroke-linecap="round" stroke-linejoin="round"/>
<path d="M34.2129 8.03886L30.7095 4.53554L34.2451 1.00001M40.1015 15.3465C40.6899 13.9724 40.8826 12.4643 40.6575 10.9936C40.4325 9.52285 39.798 8.14751 38.8277 7.02582C37.8573 5.90413 36.5899 5.08065 35.1683 4.64782C33.7466 4.215 32.2288 4.19165 30.7866 4.57883" stroke="white" stroke-width="2" stroke-linecap="round" stroke-linejoin="round"/>
</svg>
