<svg width="16" height="16" viewBox="0 0 16 16" fill="none" xmlns="http://www.w3.org/2000/svg">
<g clip-path="url(#clip0_36_6602)">
<path d="M5.30946 5.30976L7.99045 7.99077M7.99045 7.99077L10.6714 10.6718M7.99045 7.99077L5.30946 10.6718M7.99045 7.99077L10.6714 5.30976M0.841064 12.2807V3.70129C0.841064 2.70027 0.841064 2.19938 1.03588 1.81704C1.20723 1.48072 1.48047 1.20748 1.81678 1.03612C2.19912 0.841309 2.7 0.841309 3.701 0.841309H12.2803C13.2813 0.841309 13.7816 0.841309 14.1639 1.03612C14.5003 1.20748 14.774 1.48072 14.9453 1.81704C15.1401 2.19938 15.1401 2.69989 15.1401 3.70092V12.2804C15.1401 13.2814 15.1401 13.7819 14.9453 14.1642C14.774 14.5006 14.5003 14.7744 14.1639 14.9457C13.7819 15.1404 13.2824 15.1404 12.2833 15.1404H3.69807C2.69902 15.1404 2.19874 15.1404 1.81678 14.9457C1.48047 14.7744 1.20723 14.5007 1.03588 14.1643C0.841064 13.782 0.841064 13.2817 0.841064 12.2807Z" stroke="white" stroke-width="1.68083" stroke-linecap="round" stroke-linejoin="round"/>
</g>
<defs>
<clipPath id="clip0_36_6602">
<rect width="15.9857" height="15.9857" fill="white"/>
</clipPath>
</defs>
</svg>
