<svg width="14" height="14" viewBox="0 0 14 14" fill="none" xmlns="http://www.w3.org/2000/svg">
<path d="M1 5V11.9333C1 12.3067 1 12.4933 1.07266 12.6359C1.13658 12.7613 1.23849 12.8635 1.36393 12.9274C1.50639 13 1.69299 13 2.06562 13H8.99997M10.3332 4.33333L7.66659 7L6.33327 5.66667M3.66664 8.20013V3.13346C3.66664 2.38673 3.66663 2.01308 3.81196 1.72786C3.93979 1.47698 4.14361 1.27316 4.39449 1.14532C4.6797 1 5.05335 1 5.80007 1H10.8667C11.6134 1 11.9866 1 12.2718 1.14532C12.5227 1.27316 12.7268 1.47698 12.8547 1.72786C13 2.01308 13 2.38646 13 3.13319L13 8.19987C13 8.94661 13 9.31997 12.8547 9.60519C12.7268 9.85607 12.5227 10.0603 12.2718 10.1882C11.9869 10.3333 11.6142 10.3333 10.8689 10.3333H5.79788C5.05261 10.3333 4.67942 10.3333 4.39449 10.1882C4.14361 10.0603 3.93979 9.85614 3.81196 9.60526C3.66664 9.32004 3.66664 8.94687 3.66664 8.20013Z" stroke="#8E95A8" stroke-width="2" stroke-linecap="round" stroke-linejoin="round"/>
</svg>
