<svg width="18" height="18" viewBox="0 0 18 18" fill="none" xmlns="http://www.w3.org/2000/svg">
<path d="M5 9H9M9 9H13M9 9V13M9 9V5M1 13.8002V4.2002C1 3.08009 1 2.51962 1.21799 2.0918C1.40973 1.71547 1.71547 1.40973 2.0918 1.21799C2.51962 1 3.08009 1 4.2002 1H13.8002C14.9203 1 15.4801 1 15.9079 1.21799C16.2842 1.40973 16.5905 1.71547 16.7822 2.0918C17.0002 2.51962 17.0002 3.07967 17.0002 4.19978V13.7998C17.0002 14.9199 17.0002 15.48 16.7822 15.9078C16.5905 16.2841 16.2842 16.5905 15.9079 16.7822C15.4805 17 14.9215 17 13.8036 17H4.19691C3.07899 17 2.5192 17 2.0918 16.7822C1.71547 16.5905 1.40973 16.2842 1.21799 15.9079C1 15.4801 1 14.9203 1 13.8002Z" stroke="white" stroke-width="2" stroke-linecap="round" stroke-linejoin="round"/>
</svg>
