<svg width="16" height="16" viewBox="0 0 16 16" fill="none" xmlns="http://www.w3.org/2000/svg">
<g clip-path="url(#clip0_36_6605)">
<path d="M4.44041 7.99296H7.99277M7.99277 7.99296H11.5451M7.99277 7.99296V11.5453M7.99277 7.99296V4.44057M0.888062 12.256V3.73027C0.888062 2.7355 0.888062 2.23775 1.08165 1.85781C1.25194 1.52358 1.52346 1.25207 1.85767 1.08177C2.23761 0.888184 2.73536 0.888184 3.73011 0.888184H12.2558C13.2505 0.888184 13.7476 0.888184 14.1276 1.08177C14.4617 1.25207 14.7338 1.52358 14.904 1.85781C15.0976 2.23775 15.0976 2.73514 15.0976 3.72989V12.2556C15.0976 13.2504 15.0976 13.7478 14.904 14.1277C14.7338 14.4619 14.4617 14.734 14.1276 14.9043C13.748 15.0977 13.2516 15.0977 12.2588 15.0977H3.72719C2.73439 15.0977 2.23724 15.0977 1.85767 14.9043C1.52346 14.734 1.25194 14.462 1.08165 14.1279C0.888062 13.7479 0.888062 13.2508 0.888062 12.256Z" stroke="#1A1E2A" stroke-width="1.77619" stroke-linecap="round" stroke-linejoin="round"/>
</g>
<defs>
<clipPath id="clip0_36_6605">
<rect width="15.9857" height="15.9857" fill="white"/>
</clipPath>
</defs>
</svg>
