<svg width="19" height="19" viewBox="0 0 19 19" fill="none" xmlns="http://www.w3.org/2000/svg">
<path d="M6.31243 6.3125L9.49982 9.49993M9.49982 9.49993L12.6872 12.6874M9.49982 9.49993L6.31243 12.6874M9.49982 9.49993L12.6872 6.3125M1 14.6002V4.40021C1 3.2101 1 2.6146 1.23161 2.16003C1.43534 1.76019 1.76018 1.43534 2.16002 1.23161C2.61458 1 3.21007 1 4.40016 1H14.6C15.7901 1 16.3849 1 16.8394 1.23161C17.2393 1.43534 17.5647 1.76019 17.7684 2.16003C18 2.6146 18 3.20965 18 4.39976V14.5998C18 15.7899 18 16.385 17.7684 16.8395C17.5647 17.2394 17.2393 17.5649 16.8394 17.7686C16.3853 18 15.7914 18 14.6036 18H4.39667C3.2089 18 2.61413 18 2.16002 17.7686C1.76018 17.5649 1.43534 17.2395 1.23161 16.8396C1 16.3851 1 15.7903 1 14.6002Z" stroke="white" stroke-width="2" stroke-linecap="round" stroke-linejoin="round"/>
</svg>
