<svg width="35" height="42" viewBox="0 0 35 42" fill="none" xmlns="http://www.w3.org/2000/svg">
<path d="M6.86702 27L28.1337 27C30.1872 27 31.2125 27 31.9969 26.6294C32.6868 26.3035 33.2492 25.7837 33.6007 25.1439C34 24.4174 34 23.4657 34 21.5653L34 15.4347C34 13.5343 34 12.584 33.6007 11.8574C33.2492 11.2177 32.6868 10.6962 31.9969 10.3702C31.2133 10 30.1885 10 28.139 10L6.861 10C4.81149 10 3.7852 10 3.00163 10.3702C2.3117 10.6962 1.75118 11.2177 1.39964 11.8574C0.999999 12.5847 0.999999 13.5355 0.999999 15.4397L1 21.5597C1 23.4638 1 24.4166 1.39964 25.1439C1.75118 25.7837 2.3117 26.3035 3.00163 26.6294C3.78597 27 4.8135 27 6.86702 27Z" stroke="white" stroke-width="2" stroke-linecap="round" stroke-linejoin="round"/>
</svg>
